<svg width="600" height="600" viewBox="0 0 600 600" fill="none" xmlns="http://www.w3.org/2000/svg">
<g clip-path="url(#clip0)">
<g clip-path="url(#clip1)">
<path fill-rule="evenodd" clip-rule="evenodd" d="M429.905 -36.1196L330.724 272.489L409.701 -45.3043L429.905 -36.1196ZM380.314 -30.6087L352.764 154.924L404.191 -19.587L319.704 -26.9348V228.402L305.01 -23.2609L284.807 -26.9348L310.52 219.217L273.786 -26.9348L268.276 -28.7717L308.683 254.12L238.889 -23.2609H202.156L266.44 164.109L187.462 -12.2391L163.585 4.29348L248.073 175.13L150.729 9.80434L108.485 31.8478L237.053 204.522L95.6281 39.1956L86.4447 46.5435L275.623 263.304L73.5879 53.8913L44.201 83.2826L248.073 255.957L33.1809 96.1413L25.8342 127.37L277.46 283.511L16.6507 140.228L0.120605 173.293L91.9548 217.38L-3.55276 182.478L-16.4095 224.728L292.153 307.391L-18.2462 259.63L-16.4095 305.554L271.95 312.902L-12.7362 329.435V353.315H22.1608L-10.8995 360.663L-9.06282 366.174L198.482 334.946L-5.38945 379.033L5.63065 417.609L55.2211 402.913L7.46734 423.12L11.1407 430.467L123.178 391.891L20.3241 439.652L25.8342 452.511L301.337 320.25L40.5276 463.533L44.201 476.391L158.075 410.261L53.3844 483.739L69.9146 502.109L159.912 437.815L80.9347 513.13L86.4447 516.804L220.523 402.913L95.6281 525.989L99.3015 531.5L271.95 360.663L113.995 537.011L126.852 549.87L224.196 434.141L134.198 553.543L150.729 564.565L249.91 423.12L169.095 566.402L183.789 548.033L169.095 577.424L181.952 581.098L231.543 491.087L191.136 582.935L216.849 592.12L308.683 347.804L238.889 593.957L262.766 601.304L317.867 329.435L281.133 603.141H288.48L299.5 527.826L295.827 601.304H325.214V393.728L341.744 599.467L372.967 593.957L365.621 549.87L378.477 592.12H382.151L380.314 570.076L387.661 588.446L409.701 582.935L350.927 404.75L420.721 575.587H426.231L330.724 338.62L439.088 566.402L442.761 564.565L361.947 393.728L453.781 560.891L461.128 557.217L347.254 356.989L477.658 544.359L516.229 509.457L415.211 404.75L523.575 502.109L437.251 417.609L530.922 492.924L562.146 458.022L395.008 355.152L567.656 441.489L578.676 424.957L507.045 390.054L582.349 417.609L597.043 379.033L411.538 331.272L602.553 366.174L609.899 305.554L466.638 303.717L608.063 290.859L609.899 283.511L321.54 312.902L611.736 261.467L600.716 213.707L407.864 279.837L595.206 199.011V191.663L514.392 222.891L591.533 182.478L589.696 178.804L345.417 300.043L586.023 167.783L584.186 158.598L494.188 206.359L576.839 149.413L545.616 96.1413L455.618 178.804L538.269 90.6304L514.392 64.913L481.332 103.489L510.719 59.4022L464.802 26.337L415.211 112.674L459.291 20.8261L422.558 -3.05435L536.432 -12.2391L653.98 127.37L665 336.783L613.573 478.228L497.862 582.935L325.214 616C325.214 616 102.637 602.724 99.3015 603.141C95.9661 603.558 -25.593 507.62 -25.593 507.62L-66 187.989C-66 187.989 34.799 -16.0967 35.0176 -23.2609C35.2362 -30.425 248.073 -60 248.073 -60H437.251L380.314 -30.6087Z" fill="white"/>
</g>
</g>
<defs>
<clipPath id="clip0">
<rect width="600" height="600" fill="white"/>
</clipPath>
<clipPath id="clip1">
<rect width="633" height="633" fill="white" transform="translate(-17 -17)"/>
</clipPath>
</defs>
</svg>
