<svg width="600" height="600" viewBox="0 0 600 600" fill="none" xmlns="http://www.w3.org/2000/svg">
<g clip-path="url(#clip0)">
<path d="M24.1155 184.261C52.9622 115.767 106.23 60.4345 173.579 29.0062C240.928 -2.42214 317.552 -7.70438 388.576 14.1849C459.6 36.0742 519.957 83.5733 557.93 147.461C595.902 211.349 608.781 287.067 594.067 359.917C579.352 432.766 538.093 497.549 478.3 541.69C418.507 585.83 344.446 606.178 270.494 598.784C196.542 591.39 127.975 556.781 78.1055 501.676C28.2355 446.571 0.620178 374.901 0.620361 300.581C0.570312 260.624 8.56061 221.065 24.1155 184.261ZM30.7886 265.485C46.0341 231.081 70.5035 201.566 101.488 180.21C132.472 158.854 168.762 146.49 206.34 144.486C243.918 142.482 281.317 150.916 314.397 168.856C347.477 186.796 374.946 213.54 393.764 246.128C403.206 262.439 408.244 280.924 408.384 299.77C408.524 318.615 403.76 337.173 394.562 353.622C419.353 337.697 439.748 315.8 453.875 289.942C468.003 264.085 475.411 235.093 475.42 205.627C475.42 110.108 398.931 32.1198 304.009 29.7041C302.494 29.7041 300.987 29.6483 299.473 29.6483C161.946 29.6642 48.0493 132.614 30.7886 265.485ZM218.431 300.565C218.427 316.59 223.174 332.256 232.074 345.582C240.973 358.909 253.625 369.296 268.428 375.432C283.232 381.568 299.522 383.176 315.24 380.052C330.957 376.929 345.395 369.215 356.728 357.885C368.061 346.556 375.78 332.12 378.908 316.403C382.036 300.687 380.433 284.396 374.301 269.59C368.17 254.785 357.786 242.13 344.462 233.227C331.138 224.323 315.474 219.571 299.449 219.571C277.971 219.597 257.38 228.139 242.192 243.326C227.004 258.512 218.459 279.103 218.431 300.581V300.565ZM464.457 85.855C486.537 116.28 499.775 152.218 502.708 189.696C505.641 227.175 498.155 264.734 481.077 298.224C463.999 331.714 437.995 359.83 405.937 379.465C373.88 399.1 337.018 409.49 299.425 409.486C280.584 409.473 262.068 404.573 245.686 395.266C229.305 385.958 215.618 372.56 205.962 356.381C207.708 393.561 221.201 429.23 244.5 458.257C267.8 487.284 299.705 508.174 335.628 517.921C371.55 527.668 409.639 525.771 444.415 512.503C479.191 499.234 508.863 475.278 529.163 444.079C556.156 401.086 570.445 351.337 570.381 300.573C570.365 213.241 528.82 135.437 464.457 85.855ZM299.425 571.513C335.062 571.538 370.349 564.492 403.244 550.784C365.839 554.753 328.065 548.297 294.101 532.13C260.138 515.964 231.308 490.717 210.803 459.183C190.297 427.649 178.914 391.057 177.913 353.455C176.913 315.853 186.333 278.708 205.133 246.128C214.555 229.817 228.045 216.228 244.286 206.685C260.527 197.143 278.964 191.974 297.798 191.683C246.343 165.262 182.914 164.64 129.202 195.669C89.7596 218.452 60.6882 255.642 48.1019 299.418C35.5156 343.194 40.3951 390.146 61.7142 430.398C107.756 514.398 197.057 571.513 299.449 571.513H299.425Z" fill="white"/>
</g>
<defs>
<clipPath id="clip0">
<rect width="600" height="600" fill="white"/>
</clipPath>
</defs>
</svg>
