<svg width="600" height="600" viewBox="0 0 600 600" fill="none" xmlns="http://www.w3.org/2000/svg">
<g clip-path="url(#clip0)">
<path fill-rule="evenodd" clip-rule="evenodd" d="M-5 300C-5 468.181 131.819 605 300 605C468.181 605 605 468.181 605 300C605 131.819 468.181 -5 300 -5C131.819 -5 -5 131.819 -5 300ZM75.1074 299.103C75.1074 254.801 88.2445 211.494 112.857 174.658C137.47 137.822 172.454 109.112 213.383 92.1581C254.313 75.2044 299.351 70.7684 342.802 79.4113C386.253 88.0543 426.165 109.388 457.492 140.714C488.818 172.041 510.152 211.953 518.795 255.404C527.437 298.854 523.002 343.893 506.048 384.822C489.094 425.752 460.384 460.735 423.548 485.348C386.712 509.961 343.405 523.099 299.103 523.099C239.715 523.036 182.777 499.416 140.783 457.422C98.7897 415.429 75.1701 358.491 75.1074 299.103V299.103Z" fill="white"/>
</g>
<defs>
<clipPath id="clip0">
<rect width="600" height="600" fill="white"/>
</clipPath>
</defs>
</svg>
