<svg width="600" height="600" viewBox="0 0 600 600" fill="none" xmlns="http://www.w3.org/2000/svg">
<g clip-path="url(#clip0)">
<path fill-rule="evenodd" clip-rule="evenodd" d="M-30 -24H631V633H-30V-24ZM300.54 512.701C287.689 512.694 275.324 517.641 265.994 526.522C256.665 535.402 251.081 547.54 250.393 560.434C250.324 561.733 250.511 563.033 250.942 564.26C251.373 565.487 252.041 566.617 252.907 567.584C253.773 568.552 254.82 569.339 255.988 569.9C257.157 570.461 258.424 570.786 259.717 570.855C261.01 570.924 262.305 570.737 263.526 570.303C264.747 569.87 265.871 569.199 266.834 568.329C267.798 567.459 268.581 566.407 269.139 565.233C269.698 564.059 270.021 562.786 270.089 561.486C270.506 553.647 273.898 546.267 279.568 540.866C285.239 535.464 292.754 532.454 300.568 532.454C308.381 532.454 315.897 535.464 321.567 540.866C327.238 546.267 330.63 553.647 331.046 561.486C331.179 564.015 332.272 566.396 334.1 568.14C335.927 569.883 338.351 570.856 340.871 570.859H341.399C342.691 570.79 343.956 570.466 345.124 569.906C346.291 569.345 347.337 568.559 348.202 567.593C349.066 566.626 349.733 565.497 350.164 564.272C350.594 563.046 350.78 561.747 350.711 560.449C350.027 547.549 344.442 535.404 335.106 526.519C325.771 517.635 313.399 512.689 300.54 512.701ZM316.899 473.632C332.938 476.588 347.886 483.84 360.165 494.62C376.494 508.954 387.157 528.701 390.214 550.269C390.468 551.586 390.454 552.941 390.17 554.253C389.887 555.564 389.342 556.803 388.567 557.896C387.792 558.988 386.804 559.911 385.664 560.609C384.523 561.306 383.253 561.762 381.931 561.951C380.609 562.14 379.262 562.056 377.973 561.706C376.684 561.355 375.48 560.745 374.433 559.912C373.386 559.079 372.519 558.042 371.884 556.861C371.248 555.681 370.859 554.384 370.738 553.048C365.822 518.21 335.655 491.929 300.563 491.929C265.472 491.929 235.297 518.218 230.381 553.048C230.047 555.406 228.879 557.564 227.091 559.127C225.302 560.689 223.013 561.552 220.643 561.557C220.176 561.555 219.71 561.52 219.248 561.454C217.966 561.275 216.731 560.843 215.615 560.183C214.499 559.523 213.524 558.649 212.744 557.61C211.965 556.571 211.397 555.388 211.073 554.128C210.75 552.869 210.676 551.557 210.857 550.269C213.168 534.051 219.793 518.759 230.032 506.008C240.272 493.257 253.746 483.518 269.035 477.82C284.324 472.122 300.86 470.675 316.899 473.632ZM382.784 460.772C365.488 446.751 344.926 437.382 323.033 433.547C301.139 429.712 278.635 431.538 257.637 438.851C236.639 446.164 217.839 458.725 203.005 475.351C188.171 491.978 177.791 512.123 172.843 533.891C172.557 535.158 172.522 536.469 172.74 537.749C172.958 539.029 173.425 540.254 174.115 541.353C174.804 542.452 175.702 543.403 176.757 544.154C177.812 544.904 179.004 545.438 180.265 545.726C181.525 546.013 182.83 546.048 184.104 545.829C185.379 545.61 186.597 545.141 187.691 544.448C188.785 543.756 189.732 542.854 190.479 541.793C191.226 540.733 191.757 539.535 192.043 538.269C197.662 513.582 211.455 491.543 231.164 475.758C250.873 459.973 275.331 451.377 300.536 451.377C325.74 451.377 350.198 459.973 369.907 475.758C389.616 491.543 403.409 513.582 409.028 538.269C409.521 540.456 410.739 542.411 412.483 543.812C414.226 545.213 416.392 545.977 418.624 545.979C419.361 545.98 420.096 545.895 420.814 545.726C422.075 545.439 423.268 544.905 424.323 544.155C425.379 543.404 426.277 542.453 426.966 541.354C427.655 540.255 428.122 539.03 428.34 537.749C428.558 536.469 428.523 535.158 428.236 533.891C421.651 505.097 405.648 479.352 382.784 460.772ZM328.39 393.311C355.338 397.772 380.836 408.64 402.757 425.008C431.702 446.54 453.118 476.728 463.934 511.244C464.72 513.748 464.484 516.462 463.279 518.791C462.073 521.12 459.997 522.873 457.505 523.664C456.544 523.967 455.543 524.122 454.535 524.123C452.442 524.121 450.405 523.45 448.717 522.206C447.03 520.962 445.781 519.21 445.152 517.205C435.426 486.331 416.165 459.373 390.162 440.238C364.159 421.104 332.767 410.79 300.536 410.79C268.305 410.79 236.912 421.104 210.91 440.238C184.907 459.373 165.646 486.331 155.92 517.205C155.53 518.444 154.902 519.594 154.07 520.589C153.238 521.584 152.219 522.404 151.072 523.004C149.924 523.603 148.671 523.97 147.382 524.082C146.094 524.195 144.796 524.051 143.562 523.66C142.329 523.269 141.185 522.637 140.194 521.801C139.204 520.966 138.387 519.942 137.79 518.789C137.194 517.636 136.829 516.376 136.717 515.082C136.605 513.787 136.748 512.483 137.137 511.244C145.381 485.082 159.728 461.279 178.983 441.818C198.238 422.356 221.843 407.8 247.832 399.362C273.821 390.925 301.441 388.85 328.39 393.311ZM419.823 387.424C393.764 369.574 364.066 357.798 332.898 352.955C301.729 348.113 269.878 350.327 239.67 359.435C209.462 368.543 181.661 384.316 158.296 405.601C134.932 426.886 116.595 453.145 104.623 482.462C104.133 483.664 103.882 484.952 103.886 486.251C103.891 487.551 104.15 488.837 104.649 490.036C105.148 491.234 105.877 492.323 106.794 493.239C107.712 494.154 108.8 494.88 109.997 495.373C111.193 495.866 112.475 496.118 113.768 496.113C115.061 496.109 116.341 495.849 117.535 495.347C118.728 494.846 119.811 494.114 120.723 493.192C121.634 492.27 122.356 491.176 122.847 489.974C137.307 454.562 161.923 424.271 193.564 402.952C225.204 381.633 262.44 370.25 300.537 370.25C338.634 370.25 375.87 381.633 407.51 402.952C439.151 424.271 463.767 454.562 478.227 489.974C478.718 491.176 479.44 492.27 480.352 493.192C481.263 494.114 482.346 494.846 483.54 495.347C484.733 495.849 486.013 496.109 487.306 496.113C488.599 496.118 489.881 495.866 491.077 495.373C492.274 494.88 493.362 494.154 494.28 493.239C495.197 492.323 495.926 491.234 496.425 490.036C496.924 488.837 497.183 487.551 497.188 486.251C497.192 484.952 496.942 483.664 496.451 482.462C480.729 443.923 454.082 410.875 419.823 387.424ZM336.485 312.462C370.976 317.455 404.063 329.578 433.656 348.066C472.415 372.333 503.916 406.685 524.819 447.482C526.015 449.815 526.238 452.53 525.441 455.029C524.644 457.528 522.891 459.607 520.569 460.808C518.246 462.009 515.544 462.234 513.057 461.433C510.569 460.632 508.5 458.871 507.305 456.537C487.785 418.331 458.156 386.274 421.677 363.89C385.198 341.507 343.283 329.664 300.539 329.664C257.795 329.664 215.879 341.507 179.401 363.89C142.922 386.274 113.293 418.331 93.7727 456.537C92.5775 458.872 90.5082 460.634 88.0201 461.435C85.5319 462.237 82.8287 462.013 80.5051 460.812C78.1816 459.611 76.428 457.532 75.6301 455.032C74.8322 452.532 75.0555 449.816 76.2507 447.482C92.1674 416.335 114.338 388.842 141.362 366.737C168.387 344.633 199.679 328.398 233.263 319.056C266.847 309.714 301.994 307.469 336.485 312.462ZM443.789 307.014C378.426 270.106 301.451 259.832 228.765 278.314C156.078 296.796 93.234 342.623 53.2143 406.327C51.8413 408.545 51.3965 411.218 51.9771 413.764C52.5577 416.309 54.1164 418.521 56.3135 419.917C58.5106 421.313 61.1679 421.779 63.7058 421.215C66.2438 420.65 68.4566 419.1 69.8618 416.903C120.222 336.905 206.453 289.14 300.54 289.14C394.626 289.14 480.818 336.905 531.241 416.903C532.646 419.1 534.859 420.65 537.397 421.215C539.935 421.779 542.592 421.313 544.789 419.917C546.987 418.521 548.545 416.309 549.126 413.764C549.706 411.218 549.262 408.545 547.889 406.327C521.873 365.103 486.11 330.985 443.789 307.014ZM300.536 228.789C352.317 228.789 403.387 240.907 449.698 264.181C494.36 286.812 533.427 319.179 564.048 358.919C564.871 359.944 565.482 361.123 565.845 362.389C566.208 363.654 566.316 364.979 566.163 366.287C566.009 367.595 565.598 368.859 564.952 370.005C564.307 371.151 563.44 372.156 562.403 372.961C561.365 373.766 560.179 374.355 558.912 374.693C557.645 375.031 556.324 375.112 555.026 374.931C553.728 374.749 552.479 374.31 551.352 373.637C550.225 372.965 549.244 372.073 548.464 371.014C488.634 293.209 398.274 248.579 300.54 248.579C202.806 248.579 112.438 293.209 52.6159 371.014C51.0195 373.092 48.6671 374.447 46.0763 374.781C43.4855 375.116 40.8684 374.403 38.8008 372.799C36.7332 371.195 35.3844 368.832 35.0513 366.229C34.7181 363.626 35.4277 360.996 37.0242 358.919C67.6466 319.181 106.714 286.814 151.374 264.181C197.685 240.907 248.755 228.789 300.536 228.789ZM571.362 305.233C536.515 268.239 494.526 238.772 447.962 218.634C401.397 198.496 351.234 188.11 300.538 188.11C249.843 188.11 199.68 198.496 153.115 218.634C106.551 238.772 64.5618 268.239 29.7151 305.233C27.9129 307.137 26.9374 309.683 27.0031 312.31C27.0689 314.937 28.1705 317.43 30.0657 319.24C31.9609 321.051 34.4945 322.031 37.1089 321.965C39.7234 321.899 42.2047 320.792 44.0069 318.888C111.448 247.424 202.556 208.066 300.542 208.066C398.529 208.066 489.629 247.424 557.07 318.888C558.876 320.754 561.341 321.83 563.931 321.882C566.52 321.935 569.026 320.96 570.906 319.17C572.786 317.379 573.888 314.916 573.973 312.315C574.058 309.714 573.12 307.184 571.362 305.273V305.233ZM46.8083 260.516C45.0357 262.024 42.7885 262.851 40.466 262.851H40.4581C38.4376 262.854 36.4651 262.232 34.8082 261.07C33.1514 259.908 31.8903 258.263 31.1962 256.356C30.502 254.449 30.4083 252.375 30.9278 250.413C31.4472 248.451 32.5548 246.697 34.1001 245.389C108.629 182.193 203.008 147.527 300.531 147.527C398.054 147.527 492.433 182.193 566.962 245.389C567.951 246.227 568.765 247.252 569.359 248.406C569.954 249.561 570.316 250.821 570.425 252.116C570.535 253.411 570.389 254.714 569.997 255.953C569.605 257.191 568.974 258.34 568.14 259.333C567.306 260.326 566.285 261.145 565.137 261.742C563.988 262.339 562.733 262.703 561.445 262.812C560.156 262.922 558.858 262.776 557.626 262.382C556.393 261.988 555.25 261.354 554.262 260.516C483.246 200.421 393.383 167.465 300.535 167.465C207.687 167.465 117.824 200.421 46.8083 260.516ZM66.1128 195.883C136.082 150.842 217.438 126.903 300.537 126.903C383.635 126.903 464.991 150.842 534.961 195.883C536.542 196.915 538.386 197.465 540.271 197.466C542.396 197.464 544.464 196.771 546.165 195.491C547.866 194.211 549.109 192.413 549.709 190.365C550.309 188.317 550.234 186.128 549.494 184.127C548.754 182.125 547.39 180.418 545.605 179.259C472.46 132.168 387.41 107.138 300.537 107.138C213.664 107.138 128.613 132.168 55.4688 179.259C54.3134 179.928 53.3053 180.827 52.5058 181.899C51.7062 182.971 51.1317 184.196 50.8172 185.498C50.5027 186.8 50.4547 188.153 50.6762 189.474C50.8976 190.796 51.3838 192.058 52.1054 193.185C52.8269 194.312 53.7688 195.28 54.8738 196.03C55.9788 196.78 57.224 197.297 58.5338 197.549C59.8436 197.802 61.1907 197.784 62.4935 197.497C63.7963 197.211 65.0276 196.661 66.1128 195.883ZM300.536 86.3501C236.169 86.3501 172.469 99.4647 113.289 124.901C110.886 125.937 108.172 125.971 105.744 124.997C103.316 124.022 101.372 122.118 100.341 119.704C99.3097 117.29 99.2753 114.563 100.245 112.123C101.215 109.683 103.11 107.73 105.513 106.694C167.15 80.1979 233.495 66.5367 300.536 66.5367C367.578 66.5367 433.923 80.1979 495.56 106.694C497.963 107.73 499.857 109.683 500.827 112.123C501.797 114.563 501.763 117.29 500.732 119.704C499.701 122.118 497.757 124.022 495.329 124.997C492.901 125.971 490.186 125.937 487.783 124.901C428.603 99.4647 364.904 86.3501 300.536 86.3501ZM250.762 48.1645C251.075 48.1645 251.388 48.1486 251.699 48.117C267.827 46.5972 284.254 45.8214 300.547 45.8214C316.84 45.8214 333.267 46.613 349.394 48.117C350.684 48.2376 351.986 48.1017 353.223 47.717C354.461 47.3324 355.612 46.7065 356.609 45.8751C357.606 45.0438 358.43 44.0232 359.035 42.8717C359.64 41.7203 360.013 40.4604 360.133 39.1641C360.253 37.8678 360.117 36.5605 359.735 35.3167C359.352 34.073 358.729 32.9171 357.901 31.9152C357.074 30.9134 356.058 30.085 354.912 29.4776C353.766 28.8701 352.512 28.4954 351.222 28.3748C334.488 26.7916 317.439 26 300.539 26C283.639 26 266.582 26.7916 249.848 28.3748C247.236 28.4965 244.779 29.6558 243.018 31.5976C241.257 33.5393 240.336 36.1045 240.457 38.7288C240.578 41.353 241.732 43.8215 243.664 45.591C245.597 47.3606 248.15 48.2863 250.762 48.1645ZM309.631 559.372C309.877 559.97 310.064 560.591 310.191 561.225C310.254 561.541 310.293 561.858 310.341 562.183C310.388 562.507 310.388 562.832 310.388 563.156C310.388 563.481 310.372 563.813 310.341 564.13C310.309 564.447 310.262 564.771 310.199 565.088C310.072 565.722 309.885 566.342 309.639 566.94C309.389 567.536 309.086 568.109 308.733 568.65C308.552 568.927 308.363 569.196 308.158 569.442C307.953 569.687 307.733 569.932 307.504 570.162C307.277 570.391 307.037 570.607 306.787 570.811C306.535 571.018 306.272 571.211 305.999 571.389C305.464 571.75 304.894 572.055 304.298 572.299C303.705 572.545 303.09 572.733 302.462 572.861C301.83 572.994 301.186 573.06 300.54 573.059C300.217 573.059 299.894 573.043 299.571 573.012C299.248 572.98 298.925 572.925 298.609 572.861C297.344 572.607 296.139 572.107 295.064 571.389C294.79 571.213 294.527 571.02 294.276 570.811C294.024 570.607 293.782 570.391 293.551 570.162C293.331 569.932 293.11 569.703 292.905 569.442C292.701 569.18 292.511 568.919 292.33 568.65C291.975 568.11 291.671 567.538 291.424 566.94C291.179 566.342 290.991 565.722 290.865 565.088C290.829 564.909 290.806 564.731 290.783 564.551C290.765 564.412 290.747 564.272 290.723 564.13C290.668 563.805 290.668 563.481 290.668 563.156C290.668 562.832 290.692 562.499 290.723 562.183C290.755 561.866 290.802 561.541 290.865 561.225C290.991 560.591 291.179 559.97 291.424 559.372C291.669 558.774 291.973 558.201 292.33 557.663C292.511 557.385 292.701 557.124 292.905 556.871C293.11 556.618 293.331 556.38 293.551 556.151C293.782 555.919 294.024 555.7 294.276 555.494C294.529 555.29 294.792 555.1 295.064 554.924C295.601 554.566 296.171 554.261 296.766 554.013C297.36 553.761 297.977 553.57 298.609 553.443C298.657 553.434 298.706 553.424 298.754 553.414C299.023 553.358 299.297 553.301 299.571 553.301C300.212 553.238 300.859 553.238 301.501 553.301C301.824 553.333 302.147 553.38 302.462 553.443C303.724 553.707 304.924 554.209 305.999 554.924C306.541 555.277 307.043 555.689 307.496 556.151C307.727 556.379 307.945 556.62 308.15 556.871C308.347 557.132 308.544 557.393 308.725 557.663C309.08 558.203 309.383 558.775 309.631 559.372Z" fill="white"/>
</g>
<defs>
<clipPath id="clip0">
<rect width="600" height="600" fill="white"/>
</clipPath>
</defs>
</svg>
